<svg width="0" height="0" class="hidden">
<symbol version="1.1" id="minus" xmlns="http://www.w3.org/2000/svg" xmlns:xlink="http://www.w3.org/1999/xlink" x="0px" y="0px" xml:space="preserve" viewBox="0 0 300.003 300.003">
    <g>
      <g>
        <path d="M150.001,0c-82.843,0-150,67.159-150,150c0,82.838,67.157,150.003,150,150.003c82.838,0,150-67.165,150-150.003
			C300.001,67.159,232.838,0,150.001,0z M197.218,166.283H92.41c-8.416,0-15.238-6.821-15.238-15.238s6.821-15.238,15.238-15.238
			H197.22c8.416,0,15.238,6.821,15.238,15.238S205.634,166.283,197.218,166.283z"></path>
      </g>
    </g>
  </symbol>
    <symbol version="1.1" id="delete" xmlns="http://www.w3.org/2000/svg" xmlns:xlink="http://www.w3.org/1999/xlink" x="0px" y="0px" xml:space="preserve" viewBox="0 0 72.434 72.437">
    <path d="M36.22,0C16.212,0,0,16.215,0,36.223c0,19.999,16.212,36.214,36.22,36.214
	s36.214-16.215,36.214-36.214C72.434,16.215,56.228,0,36.22,0z M51.812,48.083l-4.565,4.565l-11.02-11.021L24.86,52.995
	l-4.565-4.565l11.367-11.367L20.639,26.04l4.568-4.565l11.02,11.02l11.349-11.343l4.565,4.565L40.792,37.063L51.812,48.083z"></path>
  </symbol>
   <symbol version="1.1" id="add" xmlns="http://www.w3.org/2000/svg" xmlns:xlink="http://www.w3.org/1999/xlink" x="0px" y="0px" xml:space="preserve" viewBox="0 0 512 512">
    <g>
      <g>
        <path d="M256,0C114.615,0,0,114.615,0,256s114.615,256,256,256s256-114.615,256-256S397.385,0,256,0z M384,283.429H283.429V384
			h-54.857V283.429H128v-54.857h100.571V128h54.857v100.571H384V283.429z"></path>
      </g>
  </symbol>
</svg>

