<svg width="0" height="0" class="hidden">
    <symbol version="1.1" id="volume" xmlns="http://www.w3.org/2000/svg" xmlns:xlink="http://www.w3.org/1999/xlink" x="0px" y="0px" enable-background="new 0 0 100 100" xml:space="preserve" viewBox="0 0 100 100">
    <g>
      <path d="M78.864,17.021c-0.026-0.026-0.056-0.042-0.082-0.067l0.008-0.008l-1.924-1.923l-0.022,0.022
		c-1.05-0.836-2.567-0.788-3.553,0.161l-0.004-0.004l-3.419,3.418l0.023,0.023c-0.773,0.983-0.77,2.365,0.01,3.345l-0.022,0.022
		l0.216,0.216c0,0,0,0,0,0h0l1.707,1.708l0.031-0.031c0.025,0.026,0.042,0.057,0.067,0.083
		c14.358,14.358,14.401,37.688,0.138,52.104l-0.019-0.019l-1.707,1.707l0,0c0,0,0,0,0,0l-0.216,0.216l0.022,0.022
		c-0.836,1.05-0.787,2.568,0.16,3.553l-0.004,0.004l3.42,3.42l0.023-0.023c0.983,0.773,2.365,0.769,3.345-0.011l0.022,0.022
		l0.216-0.216h0l0,0l1.707-1.707l-0.004-0.004C97.105,64.797,97.061,35.219,78.864,17.021z"></path>
      <path d="M69.376,30.198c-0.026-0.026-0.056-0.042-0.082-0.067l0.008-0.008L67.377,28.2l-0.022,0.022
		c-1.05-0.836-2.568-0.787-3.554,0.16l-0.004-0.004l-0.035,0.035c-0.001,0.001-0.002,0.002-0.003,0.002
		c-0.001,0.001-0.002,0.002-0.002,0.003l-3.149,3.148c-0.001,0.001-0.002,0.002-0.003,0.002c-0.001,0.001-0.002,0.002-0.002,0.003
		l-0.225,0.225l0.023,0.023c-0.773,0.984-0.769,2.365,0.011,3.344l-0.022,0.022l1.923,1.924l0.031-0.031
		c0.025,0.026,0.042,0.057,0.067,0.083c7.091,7.091,7.132,18.594,0.135,25.746l-0.014-0.014L60.825,64.6c0,0,0,0-0.001,0l-0.001,0
		l-0.215,0.215l0.022,0.022c-0.836,1.05-0.788,2.569,0.16,3.554l-0.004,0.004l3.42,3.42l0.023-0.023
		c0.983,0.773,2.364,0.769,3.344-0.011l0.022,0.022l1.923-1.923l-0.004-0.004C80.352,58.886,80.308,41.131,69.376,30.198z"></path>
      <path d="M52.751,23.803c-0.378,0-0.727,0.108-1.031,0.285l-0.018-0.032L31.238,35.871v0.012l-7.74,4.469H9.016v0.04
		c-0.012,0-0.024-0.004-0.037-0.004c-0.842,0-1.525,0.684-1.525,1.525v20.66c0,0.842,0.683,1.524,1.525,1.524
		c0.013,0,0.024-0.003,0.037-0.004v0.041h14.482l11.524,6.653v-0.031l16.548,9.555c0.336,0.232,0.742,0.372,1.181,0.372
		c1.143,0,2.071-0.927,2.071-2.07c0-0.081-0.015-0.155-0.024-0.233h0.024V25.64h-0.024C54.681,24.609,53.815,23.803,52.751,23.803z"></path>
    </g>
  </symbol> 
 <symbol version="1.1" id="save" xmlns="http://www.w3.org/2000/svg" xmlns:xlink="http://www.w3.org/1999/xlink" x="0px" y="0px" xml:space="preserve" viewBox="0 0 75.324 75.323">
    <g>
      <path d="M58.46,47.26c0.146,0.19,0.22,0.418,0.22,0.646c0,0.225-0.069,0.448-0.213,0.638c-0.286,0.381-0.792,0.521-1.235,0.348
		L44.017,43.67v30.594c0,0.586-0.475,1.06-1.059,1.06H32.367c-0.585,0-1.059-0.474-1.059-1.06V43.669l-13.216,5.222
		c-0.442,0.174-0.948,0.031-1.234-0.349c-0.287-0.38-0.286-0.905,0.006-1.282l19.959-25.96c0.2-0.261,0.51-0.414,0.839-0.414
		s0.64,0.153,0.839,0.414L58.46,47.26z M67.135,0H8.189c-1.104,0-2,0.896-2,2v13.5c0,1.104,0.896,2,2,2h58.945c1.104,0,2-0.896,2-2
		V2C69.135,0.895,68.24,0,67.135,0z"></path>
    </g>
  </symbol>
<symbol version="1.1" id="minus" xmlns="http://www.w3.org/2000/svg" xmlns:xlink="http://www.w3.org/1999/xlink" x="0px" y="0px" xml:space="preserve" viewBox="0 0 300.003 300.003">
    <g>
      <g>
        <path d="M150.001,0c-82.843,0-150,67.159-150,150c0,82.838,67.157,150.003,150,150.003c82.838,0,150-67.165,150-150.003
			C300.001,67.159,232.838,0,150.001,0z M197.218,166.283H92.41c-8.416,0-15.238-6.821-15.238-15.238s6.821-15.238,15.238-15.238
			H197.22c8.416,0,15.238,6.821,15.238,15.238S205.634,166.283,197.218,166.283z"></path>
      </g>
    </g>
  </symbol>
    <symbol version="1.1" id="delete" xmlns="http://www.w3.org/2000/svg" xmlns:xlink="http://www.w3.org/1999/xlink" x="0px" y="0px" xml:space="preserve" viewBox="0 0 72.434 72.437">
    <path d="M36.22,0C16.212,0,0,16.215,0,36.223c0,19.999,16.212,36.214,36.22,36.214
	s36.214-16.215,36.214-36.214C72.434,16.215,56.228,0,36.22,0z M51.812,48.083l-4.565,4.565l-11.02-11.021L24.86,52.995
	l-4.565-4.565l11.367-11.367L20.639,26.04l4.568-4.565l11.02,11.02l11.349-11.343l4.565,4.565L40.792,37.063L51.812,48.083z"></path>
  </symbol>
  <symbol version="1.1" id="add" xmlns="http://www.w3.org/2000/svg" xmlns:xlink="http://www.w3.org/1999/xlink" x="0px" y="0px" xml:space="preserve" viewBox="0 0 512 512">
    <g>
      <g>
        <path d="M256,0C114.615,0,0,114.615,0,256s114.615,256,256,256s256-114.615,256-256S397.385,0,256,0z M384,283.429H283.429V384
			h-54.857V283.429H128v-54.857h100.571V128h54.857v100.571H384V283.429z"></path>
      </g>
  </symbol>

</svg>

