<svg width="0" height="0" class="hidden">
 <symbol version="1.1" id="save" xmlns="http://www.w3.org/2000/svg" xmlns:xlink="http://www.w3.org/1999/xlink" x="0px" y="0px" xml:space="preserve" viewBox="0 0 75.324 75.323">
    <g>
      <path d="M58.46,47.26c0.146,0.19,0.22,0.418,0.22,0.646c0,0.225-0.069,0.448-0.213,0.638c-0.286,0.381-0.792,0.521-1.235,0.348
		L44.017,43.67v30.594c0,0.586-0.475,1.06-1.059,1.06H32.367c-0.585,0-1.059-0.474-1.059-1.06V43.669l-13.216,5.222
		c-0.442,0.174-0.948,0.031-1.234-0.349c-0.287-0.38-0.286-0.905,0.006-1.282l19.959-25.96c0.2-0.261,0.51-0.414,0.839-0.414
		s0.64,0.153,0.839,0.414L58.46,47.26z M67.135,0H8.189c-1.104,0-2,0.896-2,2v13.5c0,1.104,0.896,2,2,2h58.945c1.104,0,2-0.896,2-2
		V2C69.135,0.895,68.24,0,67.135,0z"></path>
    </g>
  </symbol>
<symbol version="1.1" id="minus" xmlns="http://www.w3.org/2000/svg" xmlns:xlink="http://www.w3.org/1999/xlink" x="0px" y="0px" xml:space="preserve" viewBox="0 0 300.003 300.003">
    <g>
      <g>
        <path d="M150.001,0c-82.843,0-150,67.159-150,150c0,82.838,67.157,150.003,150,150.003c82.838,0,150-67.165,150-150.003
			C300.001,67.159,232.838,0,150.001,0z M197.218,166.283H92.41c-8.416,0-15.238-6.821-15.238-15.238s6.821-15.238,15.238-15.238
			H197.22c8.416,0,15.238,6.821,15.238,15.238S205.634,166.283,197.218,166.283z"></path>
      </g>
    </g>
  </symbol>
    <symbol version="1.1" id="delete" xmlns="http://www.w3.org/2000/svg" xmlns:xlink="http://www.w3.org/1999/xlink" x="0px" y="0px" xml:space="preserve" viewBox="0 0 72.434 72.437">
    <path d="M36.22,0C16.212,0,0,16.215,0,36.223c0,19.999,16.212,36.214,36.22,36.214
	s36.214-16.215,36.214-36.214C72.434,16.215,56.228,0,36.22,0z M51.812,48.083l-4.565,4.565l-11.02-11.021L24.86,52.995
	l-4.565-4.565l11.367-11.367L20.639,26.04l4.568-4.565l11.02,11.02l11.349-11.343l4.565,4.565L40.792,37.063L51.812,48.083z"></path>
  </symbol>
   <symbol version="1.1" id="add" xmlns="http://www.w3.org/2000/svg" xmlns:xlink="http://www.w3.org/1999/xlink" x="0px" y="0px" xml:space="preserve" viewBox="0 0 512 512">
    <g>
      <g>
        <path d="M256,0C114.615,0,0,114.615,0,256s114.615,256,256,256s256-114.615,256-256S397.385,0,256,0z M384,283.429H283.429V384
			h-54.857V283.429H128v-54.857h100.571V128h54.857v100.571H384V283.429z"></path>
      </g>
  </symbol>
   
</svg>

